# xmcd
#
# Track frame offsets:
#	150
#	27021
#	40608
#	66261
#	81226
#	98815
#	116213
#	129913
#	143771
#	170341
#	184533
#	201674
#
# Disc length: 2918 seconds
#
# Revision: 1
# Processed by: cddbd v1.5.2PL0 Copyright (c) Steve Scherf et al.
# Submitted via: audiograbber 1.83.01
#
DISCID=a10b640c
DTITLE=Pavle Aksentijevic i grupa Zapis - Posvecenje - Stara narodna muzika
DYEAR=2007
DGENRE=Ethnic
TTITLE0=Platno beli docka moma
TTITLE1=Marije, bela marije
TTITLE2=Svu noc mi bilbil prepeva
TTITLE3=Staro Oro
TTITLE4=Pusci me
TTITLE5=Rasla mi, rasla, titra i nerandza
TTITLE6=Cvece cafnalo
TTITLE7=Posla mi sutka na vodu
TTITLE8=Preletese Tice Lastavice
TTITLE9=Pembe
TTITLE10=Niknalo Belo Cvetice
TTITLE11=Marijo, deli, bela Kumrijo
EXTD=
EXTT0=
EXTT1=
EXTT2=
EXTT3=
EXTT4=
EXTT5=
EXTT6=
EXTT7=
EXTT8=
EXTT9=
EXTT10=
EXTT11=
PLAYORDER=
